<svg xmlns="http://www.w3.org/2000/svg" xmlns:xlink="http://www.w3.org/1999/xlink" id="Layer_1" x="0" y="0" version="1.1" viewBox="0 0 460 424" xml:space="preserve" style="enable-background:new 0 0 460 424"><style type="text/css">.st0{fill:#e0e0e0}.st1{fill:#f0f0f0}.st2{fill:#053054}.st3{fill:url(#SVGID_1_)}.st4{fill:url(#SVGID_2_)}.st5{fill:#fff}.st6{fill:#0063ad}.st7{opacity:.5}.st10,.st11,.st12,.st8,.st9{clip-path:url(#SVGID_4_)}.st8{fill:#fff}.st9{fill:#feffff}.st10{fill:#fefeff}.st11{fill:#fefefe}.st12{fill:#fdfefe}.st13{fill:#fdfdfe}.st13,.st14,.st15,.st16,.st17{clip-path:url(#SVGID_4_)}.st14{fill:#fcfdfe}.st15{fill:#fbfcfe}.st16{fill:#fbfcfd}.st17{fill:#fafbfd}.st18{fill:#f9fbfd}.st18,.st19,.st20,.st21,.st22{clip-path:url(#SVGID_4_)}.st19{fill:#f9fafc}.st20{fill:#f8fafc}.st21{fill:#f7f9fc}.st22{fill:#f6f9fb}.st23{fill:#f6f8fb}.st23,.st24,.st25,.st26,.st27{clip-path:url(#SVGID_4_)}.st24{fill:#f5f8fb}.st25{fill:#f5f7fb}.st26{fill:#f4f7fb}.st27{fill:#f4f7fa}.st28{fill:#f3f6fa}.st28,.st29,.st30,.st31,.st32{clip-path:url(#SVGID_4_)}.st29{fill:#f2f6fa}.st30{fill:#f2f5fa}.st31{fill:#f1f5f9}.st32{fill:#f1f4f9}.st33{fill:#f0f4f9}.st33,.st34,.st35,.st36,.st37{clip-path:url(#SVGID_4_)}.st34{fill:#eff4f9}.st35{fill:#eff3f8}.st36{fill:#eef3f8}.st37{fill:#eef2f8}.st38{fill:#edf2f8}.st38,.st39,.st40,.st41,.st42{clip-path:url(#SVGID_4_)}.st39{fill:#ecf1f7}.st40{fill:#ebf0f7}.st41{fill:#eaf0f6}.st42{fill:#eaeff6}.st43{fill:#e9eff6}.st43,.st44,.st45,.st46,.st47{clip-path:url(#SVGID_4_)}.st44{fill:#e8eef6}.st45{fill:#e7eef5}.st46{fill:#e7edf5}.st47{fill:#e6edf5}.st48{fill:#e5ecf4}.st48,.st49,.st50,.st51,.st52{clip-path:url(#SVGID_4_)}.st49{fill:#e4ebf4}.st50{fill:#e3ebf4}.st51{fill:#e2eaf3}.st52{fill:#e1e9f3}.st53{fill:#e0e8f2}.st53,.st54,.st55,.st56,.st57{clip-path:url(#SVGID_4_)}.st54{fill:#dfe8f2}.st55{fill:#dfe7f2}.st56{fill:#dee7f1}.st57{fill:#dde6f1}.st58{fill:#dce6f1}.st58,.st59,.st60,.st61,.st62{clip-path:url(#SVGID_4_)}.st59{fill:#dce5f0}.st60{fill:#dbe4f0}.st61{fill:#dae4f0}.st62{fill:#d9e3ef}.st63{fill:#d8e3ef}.st63,.st64,.st65,.st66,.st67{clip-path:url(#SVGID_4_)}.st64{fill:#d7e2ef}.st65{fill:#d7e1ee}.st66{fill:#d6e1ee}.st67{fill:#d5e0ee}.st68{fill:#d4e0ed}.st68,.st69,.st70,.st71,.st72{clip-path:url(#SVGID_4_)}.st69{fill:#d3dfed}.st70{fill:#d2deed}.st71{fill:#d2deec}.st72{fill:#d1ddec}.st73{fill:#d0dcec}.st73,.st74,.st75,.st76,.st77{clip-path:url(#SVGID_4_)}.st74{fill:#cfdceb}.st75{fill:#cedbeb}.st76{fill:#cddbeb}.st77{fill:#ccdaea}.st78{fill:#ccd9ea}.st78,.st79,.st80,.st81,.st82{clip-path:url(#SVGID_4_)}.st79{fill:#cbd9e9}.st80{fill:#cad8e9}.st81{fill:#c9d7e9}.st82{fill:#c8d7e8}.st83{fill:#c7d6e8}.st83,.st84,.st85,.st86,.st87{clip-path:url(#SVGID_4_)}.st84{fill:#c6d5e8}.st85{fill:#c5d5e7}.st86{fill:#c4d4e7}.st87{fill:#c3d3e6}.st88{fill:#c2d3e6}.st88,.st89,.st90,.st91,.st92{clip-path:url(#SVGID_4_)}.st89{fill:#c1d2e6}.st90{fill:#c1d1e5}.st91{fill:#c0d1e5}.st92{fill:#bfd0e5}.st93{fill:#becfe4}.st93,.st94,.st95,.st96,.st97{clip-path:url(#SVGID_4_)}.st94{fill:#bdcee4}.st95{fill:#bccee3}.st96{fill:#bbcde3}.st97{fill:#bacce3}.st100,.st101,.st98,.st99{clip-path:url(#SVGID_4_)}.st98{fill:#b9cce2}.st99{fill:#b8cbe2}.st100{fill:#b7cae1}.st101{fill:#b6c9e1}.st102{fill:#b5c9e1}.st102,.st103,.st104,.st105{clip-path:url(#SVGID_4_)}.st103{fill:#b4c8e0}.st104{fill:#b3c7e0}.st105{fill:#b2c7df}.st106{fill:#b1c6df}.st106,.st107,.st108,.st109{clip-path:url(#SVGID_4_)}.st107{fill:#b0c5de}.st108{fill:#afc4de}.st109{fill:#aec4de}.st110{fill:#adc3dd}.st110,.st111,.st112,.st113{clip-path:url(#SVGID_4_)}.st111{fill:#acc2dd}.st112{fill:#abc1dc}.st113{fill:#aac1dc}.st114{fill:#a9c0dc}.st114,.st115,.st116,.st117{clip-path:url(#SVGID_4_)}.st115{fill:#a8bfdb}.st116{fill:#a7bedb}.st117{fill:#a6beda}.st118{fill:#a5bdda}.st118,.st119,.st120,.st121{clip-path:url(#SVGID_4_)}.st119{fill:#a4bcd9}.st120{fill:#a3bbd9}.st121{fill:#a1bad8}.st122{fill:#a0bad8}.st122,.st123,.st124,.st125{clip-path:url(#SVGID_4_)}.st123{fill:#9fb9d8}.st124{fill:#9eb8d7}.st125{fill:#9db7d7}.st126{fill:#9cb6d6}.st126,.st127,.st128,.st129{clip-path:url(#SVGID_4_)}.st127{fill:#9bb6d6}.st128{fill:#9ab5d5}.st129{fill:#99b4d5}.st130{fill:#98b3d4}.st130,.st131,.st132,.st133{clip-path:url(#SVGID_4_)}.st131{fill:#97b2d4}.st132{fill:#96b2d4}.st133{fill:#94b1d3}.st134{fill:#93b0d3}.st134,.st135,.st136,.st137{clip-path:url(#SVGID_4_)}.st135{fill:#92afd2}.st136{fill:#91aed2}.st137{fill:#90aed1}.st138{fill:#8fadd1}.st138,.st139,.st140,.st141{clip-path:url(#SVGID_4_)}.st139{fill:#8eacd0}.st140{fill:#8dabd0}.st141{fill:#8caacf}.st142{fill:#8aa9cf}.st142,.st143,.st144,.st145{clip-path:url(#SVGID_4_)}.st143{fill:#89a9cf}.st144{fill:#88a8ce}.st145{fill:#87a7ce}.st146{fill:#86a6cd}.st146,.st147,.st148,.st149{clip-path:url(#SVGID_4_)}.st147{fill:#85a5cd}.st148{fill:#84a4cc}.st149{fill:#82a4cc}.st150{fill:#81a3cb}.st150,.st151,.st152,.st153{clip-path:url(#SVGID_4_)}.st151{fill:#80a2cb}.st152{fill:#7fa1ca}.st153{fill:#7ea0ca}.st154{fill:#7d9fc9}.st154,.st155,.st156,.st157{clip-path:url(#SVGID_4_)}.st155{fill:#7b9ec9}.st156{fill:#7a9ec8}.st157{fill:#799dc8}.st158{fill:#789cc7}.st158,.st159,.st160,.st161{clip-path:url(#SVGID_4_)}.st159{fill:#779bc7}.st160{fill:#759ac6}.st161{fill:#7499c6}.st162{fill:#7398c5}.st162,.st163,.st164,.st165{clip-path:url(#SVGID_4_)}.st163{fill:#7297c5}.st164{fill:#7197c4}.st165{fill:#6f96c4}.st166{fill:#6e95c3}.st166,.st167,.st168,.st169{clip-path:url(#SVGID_4_)}.st167{fill:#6d94c3}.st168{fill:#6c93c2}.st169{fill:#6b92c2}.st170{fill:#6991c1}.st170,.st171,.st172,.st173{clip-path:url(#SVGID_4_)}.st171{fill:#6890c1}.st172{fill:#678fc0}.st173{fill:#668fc0}.st174{fill:#648ebf}.st174,.st175,.st176,.st177{clip-path:url(#SVGID_4_)}.st175{fill:#638dbf}.st176{fill:#628cbe}.st177{fill:#618bbe}.st178{fill:#5f8abd}.st178,.st179,.st180,.st181{clip-path:url(#SVGID_4_)}.st179{fill:#5e89bd}.st180{fill:#5d88bc}.st181{fill:#5c87bc}.st182{fill:#5a86bb}.st182,.st183,.st184,.st185{clip-path:url(#SVGID_4_)}.st183{fill:#5985bb}.st184{fill:#5884ba}.st185{fill:#5784ba}.st186{fill:#5583b9}.st186,.st187,.st188,.st189{clip-path:url(#SVGID_4_)}.st187{fill:#5482b9}.st188{fill:#5381b8}.st189{fill:#5280b8}.st190{fill:#507fb7}.st190,.st191,.st192,.st193{clip-path:url(#SVGID_4_)}.st191{fill:#4f7eb7}.st192{fill:#4e7db6}.st193{fill:#4c7cb5}.st194{fill:#4b7bb5}.st194,.st195,.st196,.st197{clip-path:url(#SVGID_4_)}.st195{fill:#4a7ab4}.st196{fill:#4979b4}.st197{fill:#4778b3}.st198{fill:#4677b3}.st198,.st199,.st200,.st201{clip-path:url(#SVGID_4_)}.st199{fill:#4576b2}.st200{fill:#4375b2}.st201{fill:#4274b1}.st202{fill:#4173b1}.st202,.st203,.st204,.st205{clip-path:url(#SVGID_4_)}.st203{fill:#3f72b0}.st204{fill:#3e72b0}.st205{fill:#3d71af}.st206{fill:#3b70ae}.st206,.st207,.st208,.st209{clip-path:url(#SVGID_4_)}.st207{fill:#3a6fae}.st208{fill:#396ead}.st209{fill:#376dad}.st210{fill:#366cac}.st210,.st211,.st212,.st213{clip-path:url(#SVGID_4_)}.st211{fill:#356bac}.st212{fill:#336aab}.st213{fill:#3269ab}.st214{fill:#3168aa}.st214,.st215,.st216,.st217{clip-path:url(#SVGID_4_)}.st215{fill:#2f67aa}.st216{fill:#2e66a9}.st217{fill:#2d65a8}.st218{fill:#2b64a8}.st218,.st219,.st220,.st221{clip-path:url(#SVGID_4_)}.st219{fill:#2a63a7}.st220{fill:#2962a7}.st221{fill:#2761a6}.st222{fill:#2660a6}.st222,.st223,.st224,.st225{clip-path:url(#SVGID_4_)}.st223{fill:#255fa5}.st224{fill:#235ea4}.st225{fill:#225da4}.st226{fill:#205ca3}.st226,.st227,.st228,.st229{clip-path:url(#SVGID_4_)}.st227{fill:#1f5ba3}.st228{fill:#1e5aa2}.st229{fill:#1c59a2}.st230{fill:#1b58a1}.st230,.st231,.st232,.st233{clip-path:url(#SVGID_4_)}.st231{fill:#1957a0}.st232{fill:#1856a0}.st233{fill:#17559f}.st234{fill:#15549f}.st234,.st235,.st236,.st237{clip-path:url(#SVGID_4_)}.st235{fill:#14539e}.st236{fill:#12529e}.st237{fill:#11519d}.st238{fill:#104f9c}.st238,.st239,.st240,.st241{clip-path:url(#SVGID_4_)}.st239{fill:#0e4e9c}.st240{fill:#0d4d9b}.st241{fill:#0b4c9b}.st242{fill:#0a4b9a}.st242,.st243,.st244,.st245{clip-path:url(#SVGID_4_)}.st243{fill:#094a9a}.st244{fill:#074999}.st245{fill:#064898}.st246{fill:#044798}.st246,.st247,.st248,.st249{clip-path:url(#SVGID_4_)}.st247{fill:#034697}.st248{fill:#014597}.st249{fill:#004496}.st250{opacity:.5;fill:#053054}.st251{fill:url(#SVGID_5_)}.st252{fill:url(#SVGID_6_)}.st253{fill:url(#SVGID_7_)}.st254{fill:url(#SVGID_8_)}.st255{fill:#dde1ed}.st256{clip-path:url(#SVGID_10_)}.st257{fill:url(#SVGID_11_)}.st258{fill:url(#SVGID_12_)}.st259{fill:url(#SVGID_13_)}.st260{fill:#a9ebff}.st261{fill:url(#SVGID_14_)}.st262{fill:url(#SVGID_15_)}.st263{opacity:.2;fill:#fff}</style><path d="M452.79,349.66l-118.82,68.95c-5.31,3.08-13.34,3.41-17.93,0.75L55.59,268.28c-4.6-2.67-4.02-7.32,1.29-10.4	l118.82-68.95c5.31-3.08,13.34-3.41,17.93-0.75l260.44,151.08C458.67,341.92,458.09,346.58,452.79,349.66z" class="st0"/><path d="M104.87,58.59L12.65,222.52c-13.49,23.97-6.36,54.34,16.36,69.74l141.25,95.73	c12.09,8.19,27.03,10.97,41.24,7.66l191.57-44.58c23.79-5.54,40.64-26.8,40.68-51.33l0.28-161.78	c0.04-24.81-17.12-46.31-41.24-51.65l-240.89-53.3C139.37,28.03,116.23,38.4,104.87,58.59z" class="st1"/><path d="M419.02,124.09l-163.56,94.88c-3.28,1.91-8.25,2.11-11.1,0.46l-100.15-58.09c-2.84-1.65-2.49-4.53,0.8-6.44	l163.56-94.88c3.28-1.91,8.25-2.11,11.1-0.46l100.15,58.09C422.66,119.3,422.3,122.18,419.02,124.09z" class="st2"/><g><path d="M193.63,188.18c-4.6-2.67-12.63-2.33-17.93,0.75L56.88,257.88c-5.31,3.08-5.88,7.74-1.29,10.4l201.34,116.79 l146.14-34.01c13.64-3.18,25-11.53,32.22-22.71L193.63,188.18z" class="st2"/><g><linearGradient id="SVGID_1_" x1="79.864" x2="423.354" y1="179.401" y2="360.386" gradientUnits="userSpaceOnUse"><stop offset="0" style="stop-color:#3a9bd5"/><stop offset=".305" style="stop-color:#3a9bd5"/><stop offset=".355" style="stop-color:#3a9bd5"/><stop offset=".599" style="stop-color:#3999d4"/><stop offset=".688" style="stop-color:#3592cf"/><stop offset=".752" style="stop-color:#2f86c7"/><stop offset=".804" style="stop-color:#2676bc"/><stop offset=".81" style="stop-color:#2573ba"/></linearGradient><path d="M457.18,298.96l-24.48-4.28L193.63,156c-4.6-2.67-12.63-2.33-17.93,0.75L64.96,221.02l-12.47-2.18l0,12.72 l0.01,0c-0.01,1.7,1,3.33,3.09,4.54l260.44,151.08c4.6,2.67,12.63,2.33,17.93-0.75l118.82-68.95c2.95-1.71,4.43-3.91,4.38-5.98 l0.01,0V298.96z" class="st3"/><linearGradient id="SVGID_2_" x1="1692.039" x2="1918.103" y1="-210.166" y2="-91.052" gradientTransform="matrix(1 -0.5774 0.866 0.5 -1420.6034 1376.6752)" gradientUnits="userSpaceOnUse"><stop offset="0" style="stop-color:#59bdef"/><stop offset="1" style="stop-color:#7bdaff"/></linearGradient><path d="M452.79,304.84l-118.82,68.95c-5.31,3.08-13.34,3.41-17.93,0.75L55.59,223.47c-4.6-2.67-4.02-7.32,1.29-10.4 l118.82-68.95c5.31-3.08,13.34-3.41,17.93-0.75l260.44,151.08C458.67,297.11,458.09,301.76,452.79,304.84z" class="st4"/><path d="M452.79,303.21l-118.82,68.95c-5.31,3.08-13.34,3.41-17.93,0.75L55.59,221.84c-1.74-1.01-2.73-2.3-3.02-3.68 c-0.36,1.97,0.61,3.92,3.02,5.31l260.44,151.08c4.6,2.67,12.63,2.33,17.93-0.75l118.82-68.95c3.3-1.92,4.77-4.44,4.3-6.72 C456.76,299.92,455.32,301.75,452.79,303.21z" class="st5"/><path d="M134.1,175.36L115.76,186c-0.8,0.46-2,0.51-2.69,0.11l-0.19-0.11c-0.69-0.4-0.6-1.1,0.19-1.56l18.34-10.64 c0.8-0.46,2-0.51,2.69-0.11l0.19,0.11C134.98,174.2,134.89,174.9,134.1,175.36z" class="st6"/></g><g class="st7"><g><defs><polygon id="SVGID_3_" points="377.46 295.07 317.59 334.96 123.46 237.95 183.32 198.06"/></defs><clipPath id="SVGID_4_"><use xlink:href="#SVGID_3_" style="overflow:visible"/></clipPath><rect width="254" height="136.91" x="123.46" y="198.06" class="st8"/><ellipse cx="250.42" cy="265.98" class="st8" rx="30.29" ry="102.14" transform="matrix(0.4309 -0.9024 0.9024 0.4309 -97.5014 377.3581)"/><ellipse cx="250.42" cy="265.98" class="st8" rx="30.17" ry="101.74" transform="matrix(0.4309 -0.9024 0.9024 0.4309 -97.5015 377.358)"/><ellipse cx="250.42" cy="265.98" class="st8" rx="30.05" ry="101.34" transform="matrix(0.4309 -0.9024 0.9024 0.4309 -97.5015 377.3578)"/><ellipse cx="250.42" cy="265.98" class="st8" rx="29.93" ry="100.94" transform="matrix(0.4309 -0.9024 0.9024 0.4309 -97.5013 377.3584)"/><ellipse cx="250.42" cy="265.98" class="st9" rx="29.81" ry="100.54" transform="matrix(0.4309 -0.9024 0.9024 0.4309 -97.5014 377.3582)"/><ellipse cx="250.42" cy="265.98" class="st10" rx="29.69" ry="100.14" transform="matrix(0.4309 -0.9024 0.9024 0.4309 -97.5014 377.3582)"/><ellipse cx="250.42" cy="265.98" class="st10" rx="29.57" ry="99.74" transform="matrix(0.4309 -0.9024 0.9024 0.4309 -97.5015 377.358)"/><ellipse cx="250.42" cy="265.98" class="st11" rx="29.46" ry="99.34" transform="matrix(0.4309 -0.9024 0.9024 0.4309 -97.5013 377.3584)"/><ellipse cx="250.42" cy="265.98" class="st12" rx="29.34" ry="98.94" transform="matrix(0.4309 -0.9024 0.9024 0.4309 -97.5014 377.3581)"/><ellipse cx="250.42" cy="265.98" class="st13" rx="29.22" ry="98.54" transform="matrix(0.4309 -0.9024 0.9024 0.4309 -97.5014 377.3583)"/><ellipse cx="250.42" cy="265.98" class="st13" rx="29.1" ry="98.14" transform="matrix(0.4309 -0.9024 0.9024 0.4309 -97.5015 377.3579)"/><ellipse cx="250.42" cy="265.98" class="st14" rx="28.98" ry="97.74" transform="matrix(0.4309 -0.9024 0.9024 0.4309 -97.5015 377.3579)"/><ellipse cx="250.42" cy="265.98" class="st14" rx="28.86" ry="97.34" transform="matrix(0.4309 -0.9024 0.9024 0.4309 -97.5014 377.3584)"/><ellipse cx="250.42" cy="265.98" class="st15" rx="28.74" ry="96.94" transform="matrix(0.4309 -0.9024 0.9024 0.4309 -97.5013 377.3584)"/><ellipse cx="250.42" cy="265.98" class="st16" rx="28.62" ry="96.54" transform="matrix(0.4309 -0.9024 0.9024 0.4309 -97.5015 377.358)"/><ellipse cx="250.42" cy="265.98" class="st16" rx="28.51" ry="96.14" transform="matrix(0.4309 -0.9024 0.9024 0.4309 -97.5014 377.3581)"/><ellipse cx="250.42" cy="265.98" class="st17" rx="28.39" ry="95.74" transform="matrix(0.4309 -0.9024 0.9024 0.4309 -97.5014 377.3582)"/><ellipse cx="250.42" cy="265.98" class="st17" rx="28.27" ry="95.33" transform="matrix(0.4309 -0.9024 0.9024 0.4309 -97.5013 377.3584)"/><ellipse cx="250.42" cy="265.98" class="st18" rx="28.15" ry="94.93" transform="matrix(0.4309 -0.9024 0.9024 0.4309 -97.5014 377.3582)"/><ellipse cx="250.42" cy="265.98" class="st19" rx="28.03" ry="94.53" transform="matrix(0.4309 -0.9024 0.9024 0.4309 -97.5014 377.3583)"/><ellipse cx="250.42" cy="265.98" class="st20" rx="27.91" ry="94.13" transform="matrix(0.4309 -0.9024 0.9024 0.4309 -97.5015 377.3579)"/><ellipse cx="250.42" cy="265.98" class="st20" rx="27.79" ry="93.73" transform="matrix(0.4309 -0.9024 0.9024 0.4309 -97.5013 377.3582)"/><ellipse cx="250.42" cy="265.98" class="st21" rx="27.67" ry="93.33" transform="matrix(0.4309 -0.9024 0.9024 0.4309 -97.5014 377.3582)"/><ellipse cx="250.42" cy="265.98" class="st21" rx="27.55" ry="92.93" transform="matrix(0.4309 -0.9024 0.9024 0.4309 -97.5015 377.358)"/><ellipse cx="250.42" cy="265.98" class="st22" rx="27.44" ry="92.53" transform="matrix(0.4309 -0.9024 0.9024 0.4309 -97.5014 377.3581)"/><ellipse cx="250.42" cy="265.98" class="st23" rx="27.32" ry="92.13" transform="matrix(0.4309 -0.9024 0.9024 0.4309 -97.5014 377.3582)"/><ellipse cx="250.42" cy="265.98" class="st24" rx="27.2" ry="91.73" transform="matrix(0.4309 -0.9024 0.9024 0.4309 -97.5013 377.3585)"/><ellipse cx="250.42" cy="265.98" class="st25" rx="27.08" ry="91.33" transform="matrix(0.4309 -0.9024 0.9024 0.4309 -97.5015 377.358)"/><ellipse cx="250.42" cy="265.98" class="st26" rx="26.96" ry="90.93" transform="matrix(0.4309 -0.9024 0.9024 0.4309 -97.5014 377.358)"/><ellipse cx="250.42" cy="265.98" class="st27" rx="26.84" ry="90.53" transform="matrix(0.4309 -0.9024 0.9024 0.4309 -97.5015 377.3578)"/><ellipse cx="250.42" cy="265.98" class="st28" rx="26.72" ry="90.13" transform="matrix(0.4309 -0.9024 0.9024 0.4309 -97.5013 377.3586)"/><ellipse cx="250.42" cy="265.98" class="st29" rx="26.6" ry="89.73" transform="matrix(0.4309 -0.9024 0.9024 0.4309 -97.5014 377.3582)"/><ellipse cx="250.42" cy="265.98" class="st30" rx="26.49" ry="89.33" transform="matrix(0.4309 -0.9024 0.9024 0.4309 -97.5014 377.3582)"/><ellipse cx="250.42" cy="265.98" class="st31" rx="26.37" ry="88.93" transform="matrix(0.4309 -0.9024 0.9024 0.4309 -97.5015 377.3578)"/><ellipse cx="250.42" cy="265.98" class="st32" rx="26.25" ry="88.53" transform="matrix(0.4309 -0.9024 0.9024 0.4309 -97.5013 377.3582)"/><path d="M329.96,303.92c-6.17,13.05-46.77,6.64-90.7-14.32c-43.93-20.96-74.54-48.52-68.37-61.57 s46.77-6.64,90.7,14.32C305.52,263.31,336.13,290.88,329.96,303.92z" class="st33"/><ellipse cx="250.42" cy="265.98" class="st34" rx="26.01" ry="87.72" transform="matrix(0.4309 -0.9024 0.9024 0.4309 -97.5014 377.3581)"/><ellipse cx="250.42" cy="265.98" class="st35" rx="25.89" ry="87.32" transform="matrix(0.4309 -0.9024 0.9024 0.4309 -97.5015 377.358)"/><ellipse cx="250.42" cy="265.98" class="st36" rx="25.77" ry="86.92" transform="matrix(0.4309 -0.9024 0.9024 0.4309 -97.5015 377.358)"/><ellipse cx="250.42" cy="265.98" class="st37" rx="25.65" ry="86.52" transform="matrix(0.4309 -0.9024 0.9024 0.4309 -97.5013 377.3586)"/><ellipse cx="250.42" cy="265.98" class="st38" rx="25.54" ry="86.12" transform="matrix(0.4309 -0.9024 0.9024 0.4309 -97.5013 377.3584)"/><ellipse cx="250.42" cy="265.98" class="st39" rx="25.42" ry="85.72" transform="matrix(0.4309 -0.9024 0.9024 0.4309 -97.5015 377.358)"/><ellipse cx="250.42" cy="265.98" class="st39" rx="25.3" ry="85.32" transform="matrix(0.4309 -0.9024 0.9024 0.4309 -97.5015 377.358)"/><ellipse cx="250.42" cy="265.98" class="st40" rx="25.18" ry="84.92" transform="matrix(0.4309 -0.9024 0.9024 0.4309 -97.5014 377.3582)"/><path d="M326.71,302.37c-5.91,12.51-44.86,6.37-86.99-13.73c-42.13-20.1-71.49-46.54-65.58-59.05 c5.91-12.51,44.86-6.37,86.99,13.73C303.26,263.42,332.62,289.86,326.71,302.37z" class="st41"/><ellipse cx="250.42" cy="265.98" class="st42" rx="24.94" ry="84.12" transform="matrix(0.4309 -0.9024 0.9024 0.4309 -97.5014 377.3583)"/><ellipse cx="250.42" cy="265.98" class="st43" rx="24.82" ry="83.72" transform="matrix(0.4309 -0.9024 0.9024 0.4309 -97.5014 377.3582)"/><path d="M325.62,301.85c-5.83,12.34-44.22,6.27-85.75-13.54c-41.53-19.81-70.47-45.87-64.64-58.21 c5.83-12.34,44.22-6.27,85.75,13.54C302.51,263.46,331.45,289.52,325.62,301.85z" class="st44"/><ellipse cx="250.42" cy="265.98" class="st45" rx="24.59" ry="82.92" transform="matrix(0.4309 -0.9024 0.9024 0.4309 -97.5013 377.3586)"/><ellipse cx="250.42" cy="265.98" class="st46" rx="24.47" ry="82.52" transform="matrix(0.4309 -0.9024 0.9024 0.4309 -97.5014 377.3583)"/><ellipse cx="250.42" cy="265.98" class="st47" rx="24.35" ry="82.12" transform="matrix(0.4309 -0.9024 0.9024 0.4309 -97.5014 377.3581)"/><ellipse cx="250.42" cy="265.98" class="st48" rx="24.23" ry="81.72" transform="matrix(0.4309 -0.9024 0.9024 0.4309 -97.5014 377.3581)"/><ellipse cx="250.42" cy="265.98" class="st48" rx="24.11" ry="81.32" transform="matrix(0.4309 -0.9024 0.9024 0.4309 -97.5014 377.3582)"/><ellipse cx="250.42" cy="265.98" class="st49" rx="23.99" ry="80.91" transform="matrix(0.4309 -0.9024 0.9024 0.4309 -97.5014 377.3583)"/><ellipse cx="250.42" cy="265.98" class="st50" rx="23.87" ry="80.51" transform="matrix(0.4309 -0.9024 0.9024 0.4309 -97.5015 377.3581)"/><ellipse cx="250.42" cy="265.98" class="st51" rx="23.75" ry="80.11" transform="matrix(0.4309 -0.9024 0.9024 0.4309 -97.5014 377.3581)"/><ellipse cx="250.42" cy="265.98" class="st51" rx="23.64" ry="79.71" transform="matrix(0.4309 -0.9024 0.9024 0.4309 -97.5015 377.3579)"/><ellipse cx="250.42" cy="265.98" class="st52" rx="23.52" ry="79.31" transform="matrix(0.4309 -0.9024 0.9024 0.4309 -97.5013 377.3586)"/><ellipse cx="250.42" cy="265.98" class="st53" rx="23.4" ry="78.91" transform="matrix(0.4309 -0.9024 0.9024 0.4309 -97.5014 377.3582)"/><ellipse cx="250.42" cy="265.98" class="st54" rx="23.28" ry="78.51" transform="matrix(0.4309 -0.9024 0.9024 0.4309 -97.5014 377.358)"/><ellipse cx="250.42" cy="265.98" class="st55" rx="23.16" ry="78.11" transform="matrix(0.4309 -0.9024 0.9024 0.4309 -97.5015 377.3576)"/><ellipse cx="250.42" cy="265.98" class="st56" rx="23.04" ry="77.71" transform="matrix(0.4309 -0.9024 0.9024 0.4309 -97.5015 377.358)"/><ellipse cx="250.42" cy="265.98" class="st57" rx="22.92" ry="77.31" transform="matrix(0.4309 -0.9024 0.9024 0.4309 -97.5014 377.3582)"/><ellipse cx="250.42" cy="265.98" class="st58" rx="22.8" ry="76.91" transform="matrix(0.4309 -0.9024 0.9024 0.4309 -97.5014 377.3583)"/><ellipse cx="250.42" cy="265.98" class="st59" rx="22.69" ry="76.51" transform="matrix(0.4309 -0.9024 0.9024 0.4309 -97.5014 377.3581)"/><ellipse cx="250.42" cy="265.98" class="st60" rx="22.57" ry="76.11" transform="matrix(0.4309 -0.9024 0.9024 0.4309 -97.5015 377.3579)"/><ellipse cx="250.42" cy="265.98" class="st61" rx="22.45" ry="75.71" transform="matrix(0.4309 -0.9024 0.9024 0.4309 -97.5013 377.3584)"/><ellipse cx="250.42" cy="265.98" class="st62" rx="22.33" ry="75.31" transform="matrix(0.4309 -0.9024 0.9024 0.4309 -97.5014 377.3582)"/><ellipse cx="250.42" cy="265.98" class="st63" rx="22.21" ry="74.91" transform="matrix(0.4309 -0.9024 0.9024 0.4309 -97.5014 377.3581)"/><ellipse cx="250.42" cy="265.98" class="st64" rx="22.09" ry="74.51" transform="matrix(0.4309 -0.9024 0.9024 0.4309 -97.5014 377.3581)"/><path d="M317.31,297.89c-5.19,10.97-39.33,5.58-76.27-12.04c-36.94-17.62-62.68-40.8-57.5-51.77 c5.19-10.97,39.33-5.58,76.27,12.04C296.75,263.74,322.49,286.92,317.31,297.89z" class="st65"/><ellipse cx="250.42" cy="265.98" class="st66" rx="21.85" ry="73.7" transform="matrix(0.4309 -0.9024 0.9024 0.4309 -97.5012 377.3587)"/><ellipse cx="250.42" cy="265.98" class="st67" rx="21.74" ry="73.3" transform="matrix(0.4309 -0.9024 0.9024 0.4309 -97.5014 377.3581)"/><path d="M316.22,297.37c-5.1,10.79-38.7,5.49-75.04-11.85c-36.34-17.34-61.66-40.14-56.56-50.93 c5.1-10.79,38.7-5.49,75.04,11.85C296,263.77,321.33,286.58,316.22,297.37z" class="st68"/><ellipse cx="250.42" cy="265.98" class="st69" rx="21.5" ry="72.5" transform="matrix(0.4309 -0.9024 0.9024 0.4309 -97.5015 377.3578)"/><ellipse cx="250.42" cy="265.98" class="st70" rx="21.38" ry="72.1" transform="matrix(0.4309 -0.9024 0.9024 0.4309 -97.5013 377.3585)"/><ellipse cx="250.42" cy="265.98" class="st71" rx="21.26" ry="71.7" transform="matrix(0.4309 -0.9024 0.9024 0.4309 -97.5013 377.3584)"/><ellipse cx="250.42" cy="265.98" class="st72" rx="21.14" ry="71.3" transform="matrix(0.4309 -0.9024 0.9024 0.4309 -97.5014 377.3581)"/><ellipse cx="250.42" cy="265.98" class="st73" rx="21.02" ry="70.9" transform="matrix(0.4309 -0.9024 0.9024 0.4309 -97.5015 377.3577)"/><path d="M314.05,296.33c-4.93,10.44-37.42,5.31-72.56-11.46c-35.14-16.76-59.63-38.82-54.7-49.25 c4.93-10.44,37.42-5.31,72.56,11.46C294.5,263.84,318.99,285.9,314.05,296.33z" class="st74"/><ellipse cx="250.42" cy="265.98" class="st75" rx="20.79" ry="70.1" transform="matrix(0.4309 -0.9024 0.9024 0.4309 -97.5013 377.3584)"/><ellipse cx="250.42" cy="265.98" class="st76" rx="20.67" ry="69.7" transform="matrix(0.4309 -0.9024 0.9024 0.4309 -97.5014 377.3581)"/><ellipse cx="250.42" cy="265.98" class="st77" rx="20.55" ry="69.3" transform="matrix(0.4309 -0.9024 0.9024 0.4309 -97.5014 377.3583)"/><path d="M312.61,295.64c-4.82,10.2-36.57,5.19-70.91-11.19c-34.34-16.38-58.28-37.93-53.46-48.14 c4.82-10.2,36.57-5.19,70.91,11.19S317.43,285.44,312.61,295.64z" class="st78"/><path d="M312.25,295.47c-4.79,10.14-36.36,5.16-70.5-11.13c-34.14-16.29-57.94-37.71-53.14-47.86 c4.79-10.14,36.36-5.16,70.5,11.13C293.25,263.91,317.04,285.33,312.25,295.47z" class="st79"/><path d="M311.89,295.3c-4.76,10.08-36.14,5.13-70.09-11.06s-57.6-37.49-52.83-47.58 c4.76-10.08,36.14-5.13,70.09,11.06C293,263.92,316.65,285.22,311.89,295.3z" class="st80"/><ellipse cx="250.42" cy="265.98" class="st81" rx="20.07" ry="67.7" transform="matrix(0.4309 -0.9024 0.9024 0.4309 -97.5014 377.3581)"/><ellipse cx="250.42" cy="265.98" class="st82" rx="19.95" ry="67.3" transform="matrix(0.4309 -0.9024 0.9024 0.4309 -97.5015 377.3579)"/><path d="M310.8,294.78c-4.68,9.9-35.51,5.04-68.85-10.87c-33.34-15.91-56.58-36.83-51.9-46.74 c4.68-9.9,35.51-5.04,68.85,10.87C292.24,263.95,315.48,284.88,310.8,294.78z" class="st83"/><ellipse cx="250.42" cy="265.98" class="st84" rx="19.72" ry="66.49" transform="matrix(0.4309 -0.9024 0.9024 0.4309 -97.5014 377.3583)"/><ellipse cx="250.42" cy="265.98" class="st85" rx="19.6" ry="66.09" transform="matrix(0.4309 -0.9024 0.9024 0.4309 -97.5013 377.3585)"/><ellipse cx="250.42" cy="265.98" class="st86" rx="19.48" ry="65.69" transform="matrix(0.4309 -0.9024 0.9024 0.4309 -97.5015 377.3579)"/><ellipse cx="250.42" cy="265.98" class="st87" rx="19.36" ry="65.29" transform="matrix(0.4309 -0.9024 0.9024 0.4309 -97.5015 377.358)"/><path d="M308.99,293.92c-4.54,9.61-34.44,4.89-66.79-10.54c-32.35-15.43-54.89-35.73-50.35-45.34 c4.54-9.61,34.44-4.89,66.79,10.54C290.99,264.01,313.53,284.31,308.99,293.92z" class="st88"/><ellipse cx="250.42" cy="265.98" class="st89" rx="19.12" ry="64.49" transform="matrix(0.4309 -0.9024 0.9024 0.4309 -97.5013 377.3585)"/><ellipse cx="250.42" cy="265.98" class="st90" rx="19" ry="64.09" transform="matrix(0.4309 -0.9024 0.9024 0.4309 -97.5014 377.3581)"/><path d="M307.91,293.4c-4.46,9.43-33.81,4.8-65.55-10.35s-53.87-35.07-49.42-44.5c4.46-9.43,33.81-4.8,65.55,10.35 C290.24,264.05,312.37,283.97,307.91,293.4z" class="st91"/><path d="M307.55,293.23c-4.43,9.37-33.59,4.77-65.14-10.28c-31.55-15.05-53.53-34.85-49.1-44.22 c4.43-9.37,33.59-4.77,65.14,10.28C289.99,264.06,311.98,283.86,307.55,293.23z" class="st92"/><ellipse cx="250.42" cy="265.98" class="st93" rx="18.65" ry="62.89" transform="matrix(0.4309 -0.9024 0.9024 0.4309 -97.5014 377.3583)"/><path d="M306.82,292.89c-4.37,9.25-33.17,4.71-64.32-10.15c-31.15-14.86-52.86-34.41-48.48-43.66 s33.17-4.71,64.32,10.15C289.49,264.09,311.2,283.63,306.82,292.89z" class="st94"/><ellipse cx="250.42" cy="265.98" class="st95" rx="18.41" ry="62.09" transform="matrix(0.4309 -0.9024 0.9024 0.4309 -97.5014 377.3582)"/><ellipse cx="250.42" cy="265.98" class="st96" rx="18.29" ry="61.69" transform="matrix(0.4309 -0.9024 0.9024 0.4309 -97.5015 377.358)"/><ellipse cx="250.42" cy="265.98" class="st97" rx="18.17" ry="61.29" transform="matrix(0.4309 -0.9024 0.9024 0.4309 -97.5013 377.3585)"/><ellipse cx="250.42" cy="265.98" class="st98" rx="18.05" ry="60.89" transform="matrix(0.4309 -0.9024 0.9024 0.4309 -97.5014 377.3583)"/><ellipse cx="250.42" cy="265.98" class="st99" rx="17.93" ry="60.49" transform="matrix(0.4309 -0.9024 0.9024 0.4309 -97.5015 377.3578)"/><ellipse cx="250.42" cy="265.98" class="st100" rx="17.82" ry="60.09" transform="matrix(0.4309 -0.9024 0.9024 0.4309 -97.5015 377.3579)"/><path d="M304.29,291.68c-4.18,8.84-31.68,4.49-61.43-9.7c-29.75-14.19-50.48-32.86-46.31-41.7 c4.18-8.84,31.68-4.49,61.43,9.7S308.47,282.84,304.29,291.68z" class="st101"/><ellipse cx="250.42" cy="265.98" class="st102" rx="17.58" ry="59.28" transform="matrix(0.4309 -0.9024 0.9024 0.4309 -97.5012 377.3587)"/><ellipse cx="250.42" cy="265.98" class="st103" rx="17.46" ry="58.88" transform="matrix(0.4309 -0.9024 0.9024 0.4309 -97.5014 377.3583)"/><ellipse cx="250.42" cy="265.98" class="st104" rx="17.34" ry="58.48" transform="matrix(0.4309 -0.9024 0.9024 0.4309 -97.5014 377.3581)"/><ellipse cx="250.42" cy="265.98" class="st105" rx="17.22" ry="58.08" transform="matrix(0.4309 -0.9024 0.9024 0.4309 -97.5017 377.3574)"/><ellipse cx="250.42" cy="265.98" class="st106" rx="17.1" ry="57.68" transform="matrix(0.4309 -0.9024 0.9024 0.4309 -97.5013 377.3587)"/><ellipse cx="250.42" cy="265.98" class="st107" rx="16.98" ry="57.28" transform="matrix(0.4309 -0.9024 0.9024 0.4309 -97.5014 377.358)"/><path d="M301.76,290.47c-3.98,8.42-30.19,4.28-58.54-9.24c-28.35-13.53-48.11-31.32-44.13-39.74 c3.98-8.42,30.19-4.28,58.54,9.24C285.98,264.26,305.74,282.05,301.76,290.47z" class="st108"/><path d="M301.4,290.3c-3.95,8.36-29.98,4.25-58.13-9.18c-28.15-13.43-47.77-31.1-43.82-39.46 c3.95-8.36,29.98-4.25,58.13,9.18C285.73,264.27,305.35,281.94,301.4,290.3z" class="st109"/><ellipse cx="250.42" cy="265.98" class="st110" rx="16.63" ry="56.08" transform="matrix(0.4309 -0.9024 0.9024 0.4309 -97.5015 377.3579)"/><ellipse cx="250.42" cy="265.98" class="st111" rx="16.51" ry="55.68" transform="matrix(0.4309 -0.9024 0.9024 0.4309 -97.5013 377.3585)"/><ellipse cx="250.42" cy="265.98" class="st112" rx="16.39" ry="55.28" transform="matrix(0.4309 -0.9024 0.9024 0.4309 -97.5014 377.3583)"/><path d="M299.96,289.61c-3.84,8.13-29.13,4.13-56.48-8.92c-27.35-13.05-46.42-30.22-42.58-38.34 c3.84-8.13,29.13-4.13,56.48,8.92C284.73,264.32,303.79,281.48,299.96,289.61z" class="st113"/><ellipse cx="250.42" cy="265.98" class="st114" rx="16.15" ry="54.48" transform="matrix(0.4309 -0.9024 0.9024 0.4309 -97.5015 377.3578)"/><ellipse cx="250.42" cy="265.98" class="st115" rx="16.03" ry="54.08" transform="matrix(0.4309 -0.9024 0.9024 0.4309 -97.5013 377.3584)"/><path d="M298.87,289.09c-3.76,7.95-28.49,4.04-55.25-8.72c-26.76-12.76-45.4-29.55-41.65-37.5 c3.76-7.95,28.49-4.04,55.25,8.72C283.98,264.35,302.63,281.14,298.87,289.09z" class="st116"/><path d="M298.51,288.92c-3.73,7.89-28.28,4.01-54.83-8.66c-26.56-12.67-45.06-29.33-41.33-37.22 s28.28-4.01,54.83,8.66C283.73,264.37,302.24,281.03,298.51,288.92z" class="st117"/><ellipse cx="250.42" cy="265.98" class="st118" rx="15.68" ry="52.87" transform="matrix(0.4309 -0.9024 0.9024 0.4309 -97.5014 377.3581)"/><path d="M297.79,288.57c-3.67,7.77-27.85,3.95-54.01-8.53c-26.16-12.48-44.38-28.89-40.71-36.66 c3.67-7.77,27.85-3.95,54.01,8.53S301.46,280.8,297.79,288.57z" class="st119"/><path d="M297.42,288.4c-3.64,7.71-27.64,3.92-53.6-8.46c-25.96-12.38-44.05-28.67-40.4-36.38 c3.64-7.71,27.64-3.92,53.6,8.46C282.98,264.4,301.07,280.69,297.42,288.4z" class="st120"/><ellipse cx="250.42" cy="265.98" class="st121" rx="15.32" ry="51.67" transform="matrix(0.4309 -0.9024 0.9024 0.4309 -97.5014 377.3583)"/><path d="M296.7,288.06c-3.59,7.59-27.21,3.86-52.77-8.33c-25.56-12.19-43.37-28.23-39.78-35.82 c3.59-7.59,27.21-3.86,52.77,8.33C282.48,264.43,300.29,280.46,296.7,288.06z" class="st122"/><ellipse cx="250.42" cy="265.98" class="st123" rx="15.08" ry="50.87" transform="matrix(0.4309 -0.9024 0.9024 0.4309 -97.5014 377.3581)"/><ellipse cx="250.42" cy="265.98" class="st124" rx="14.97" ry="50.47" transform="matrix(0.4309 -0.9024 0.9024 0.4309 -97.5013 377.3585)"/><ellipse cx="250.42" cy="265.98" class="st125" rx="14.85" ry="50.07" transform="matrix(0.4309 -0.9024 0.9024 0.4309 -97.5014 377.3583)"/><path d="M295.26,287.37c-3.48,7.35-26.36,3.74-51.12-8.07c-24.76-11.81-42.01-27.35-38.54-34.7 c3.48-7.35,26.36-3.74,51.12,8.07C281.48,264.48,298.73,280.01,295.26,287.37z" class="st126"/><path d="M294.89,287.19c-3.45,7.29-26.15,3.71-50.71-8.01c-24.56-11.72-41.67-27.13-38.23-34.42 c3.45-7.29,26.15-3.71,50.71,8.01C281.23,264.49,298.34,279.9,294.89,287.19z" class="st127"/><path d="M294.53,287.02c-3.42,7.24-25.94,3.68-50.3-7.94c-24.36-11.62-41.34-26.91-37.92-34.14 c3.42-7.24,25.94-3.68,50.3,7.94C280.98,264.5,297.95,279.79,294.53,287.02z" class="st128"/><ellipse cx="250.42" cy="265.98" class="st129" rx="14.37" ry="48.47" transform="matrix(0.4309 -0.9024 0.9024 0.4309 -97.5013 377.3586)"/><ellipse cx="250.42" cy="265.98" class="st130" rx="14.25" ry="48.07" transform="matrix(0.4309 -0.9024 0.9024 0.4309 -97.5014 377.3581)"/><ellipse cx="250.42" cy="265.98" class="st131" rx="14.13" ry="47.67" transform="matrix(0.4309 -0.9024 0.9024 0.4309 -97.5015 377.358)"/><path d="M293.09,286.33c-3.31,7-25.09,3.56-48.65-7.68s-39.98-26.02-36.67-33.02c3.31-7,25.09-3.56,48.65,7.68 C279.97,264.55,296.39,279.33,293.09,286.33z" class="st132"/><path d="M292.72,286.16c-3.28,6.94-24.88,3.53-48.24-7.62c-23.36-11.14-39.64-25.8-36.36-32.74 c3.28-6.94,24.88-3.53,48.24,7.61C279.72,264.56,296,279.22,292.72,286.16z" class="st133"/><path d="M292.36,285.99c-3.25,6.88-24.66,3.5-47.82-7.55c-23.16-11.05-39.3-25.58-36.05-32.46 c3.25-6.88,24.66-3.5,47.82,7.55C279.47,264.57,295.61,279.11,292.36,285.99z" class="st134"/><ellipse cx="250.42" cy="265.98" class="st135" rx="13.66" ry="46.07" transform="matrix(0.4309 -0.9024 0.9024 0.4309 -97.5014 377.3583)"/><ellipse cx="250.42" cy="265.98" class="st136" rx="13.54" ry="45.66" transform="matrix(0.4309 -0.9024 0.9024 0.4309 -97.5015 377.3578)"/><ellipse cx="250.42" cy="265.98" class="st137" rx="13.42" ry="45.26" transform="matrix(0.4309 -0.9024 0.9024 0.4309 -97.5016 377.3575)"/><ellipse cx="250.42" cy="265.98" class="st138" rx="13.3" ry="44.86" transform="matrix(0.4309 -0.9024 0.9024 0.4309 -97.5013 377.3585)"/><ellipse cx="250.42" cy="265.98" class="st139" rx="13.18" ry="44.46" transform="matrix(0.4309 -0.9024 0.9024 0.4309 -97.5013 377.3586)"/><ellipse cx="250.42" cy="265.98" class="st140" rx="13.06" ry="44.06" transform="matrix(0.4309 -0.9024 0.9024 0.4309 -97.5015 377.3578)"/><ellipse cx="250.42" cy="265.98" class="st141" rx="12.95" ry="43.66" transform="matrix(0.4309 -0.9024 0.9024 0.4309 -97.5015 377.3579)"/><ellipse cx="250.42" cy="265.98" class="st142" rx="12.83" ry="43.26" transform="matrix(0.4309 -0.9024 0.9024 0.4309 -97.5012 377.3588)"/><path d="M289.11,284.43c-3,6.35-22.75,3.23-44.11-6.96c-21.36-10.19-36.25-23.6-33.25-29.94 c3-6.35,22.75-3.23,44.11,6.96C277.22,264.68,292.11,278.09,289.11,284.43z" class="st143"/><ellipse cx="250.42" cy="265.98" class="st144" rx="12.59" ry="42.46" transform="matrix(0.4309 -0.9024 0.9024 0.4309 -97.5014 377.3582)"/><path d="M288.39,284.09c-2.94,6.23-22.32,3.17-43.29-6.83s-35.58-23.16-32.63-29.38 c2.94-6.23,22.32-3.17,43.29,6.83C276.72,264.71,291.33,277.86,288.39,284.09z" class="st145"/><path d="M288.02,283.92c-2.91,6.17-22.11,3.14-42.88-6.77c-20.77-9.91-35.24-22.94-32.32-29.1 c2.91-6.17,22.11-3.14,42.88,6.77C276.47,264.72,290.94,277.75,288.02,283.92z" class="st146"/><path d="M287.66,283.74c-2.89,6.11-21.9,3.11-42.47-6.7c-20.57-9.81-34.9-22.72-32.01-28.83 c2.89-6.11,21.9-3.11,42.47,6.7C276.22,264.73,290.55,277.64,287.66,283.74z" class="st147"/><path d="M287.3,283.57c-2.86,6.05-21.69,3.08-42.05-6.64c-20.37-9.72-34.56-22.5-31.7-28.55 c2.86-6.05,21.69-3.08,42.05,6.64C275.97,264.74,290.16,277.52,287.3,283.57z" class="st148"/><path d="M286.94,283.4c-2.83,5.99-21.47,3.05-41.64-6.57c-20.17-9.62-34.22-22.28-31.39-28.27 c2.83-5.99,21.47-3.05,41.64,6.57C275.72,264.75,289.77,277.41,286.94,283.4z" class="st149"/><path d="M286.58,283.23c-2.8,5.93-21.26,3.02-41.23-6.51c-19.97-9.53-33.88-22.05-31.08-27.99 c2.8-5.93,21.26-3.02,41.23,6.51C275.47,264.77,289.38,277.3,286.58,283.23z" class="st150"/><ellipse cx="250.42" cy="265.98" class="st151" rx="11.76" ry="39.66" transform="matrix(0.4309 -0.9024 0.9024 0.4309 -97.5014 377.3583)"/><ellipse cx="250.42" cy="265.98" class="st152" rx="11.64" ry="39.26" transform="matrix(0.4309 -0.9024 0.9024 0.4309 -97.5013 377.3585)"/><path d="M285.49,282.71c-2.72,5.75-20.62,2.93-39.99-6.31c-19.37-9.24-32.87-21.39-30.15-27.15 c2.72-5.75,20.62-2.93,39.99,6.31C274.72,264.8,288.21,276.96,285.49,282.71z" class="st153"/><ellipse cx="250.42" cy="265.98" class="st154" rx="11.4" ry="38.45" transform="matrix(0.4309 -0.9024 0.9024 0.4309 -97.5014 377.3582)"/><ellipse cx="250.42" cy="265.98" class="st155" rx="11.28" ry="38.05" transform="matrix(0.4309 -0.9024 0.9024 0.4309 -97.5017 377.3574)"/><path d="M284.41,282.19c-2.63,5.57-19.99,2.84-38.75-6.12s-31.85-20.73-29.21-26.31 c2.63-5.57,19.99-2.84,38.75,6.12C273.96,264.84,287.04,276.62,284.41,282.19z" class="st156"/><ellipse cx="250.42" cy="265.98" class="st157" rx="11.05" ry="37.25" transform="matrix(0.4309 -0.9024 0.9024 0.4309 -97.5015 377.3579)"/><path d="M283.69,281.85c-2.58,5.46-19.56,2.78-37.93-5.99c-18.37-8.76-31.17-20.29-28.59-25.75 c2.58-5.46,19.56-2.78,37.93,5.99C273.46,264.86,286.26,276.39,283.69,281.85z" class="st158"/><path d="M283.32,281.67c-2.55,5.4-19.35,2.75-37.52-5.92c-18.17-8.67-30.83-20.07-28.28-25.47 c2.55-5.4,19.35-2.75,37.52,5.92C273.21,264.88,285.88,276.28,283.32,281.67z" class="st159"/><path d="M282.96,281.5c-2.52,5.34-19.14,2.72-37.11-5.86c-17.97-8.57-30.49-19.85-27.97-25.19 c2.52-5.34,19.14-2.72,37.11,5.86C272.96,264.89,285.49,276.16,282.96,281.5z" class="st160"/><path d="M282.6,281.33c-2.49,5.28-18.92,2.68-36.69-5.79c-17.77-8.48-30.15-19.63-27.66-24.91 c2.49-5.28,18.92-2.68,36.69,5.79C272.71,264.9,285.1,276.05,282.6,281.33z" class="st161"/><path d="M282.24,281.16c-2.47,5.22-18.71,2.65-36.28-5.73c-17.57-8.38-29.82-19.41-27.35-24.63 c2.47-5.22,18.71-2.65,36.28,5.73C272.46,264.91,284.71,275.94,282.24,281.16z" class="st162"/><path d="M281.88,280.98c-2.44,5.16-18.5,2.62-35.87-5.66s-29.48-19.19-27.04-24.35s18.5-2.62,35.87,5.66 C272.21,264.92,284.32,275.83,281.88,280.98z" class="st163"/><ellipse cx="250.42" cy="265.98" class="st164" rx="10.21" ry="34.45" transform="matrix(0.4309 -0.9024 0.9024 0.4309 -97.5016 377.3575)"/><ellipse cx="250.42" cy="265.98" class="st165" rx="10.1" ry="34.05" transform="matrix(0.4309 -0.9024 0.9024 0.4309 -97.5012 377.3588)"/><path d="M280.79,280.47c-2.35,4.98-17.86,2.53-34.63-5.47c-16.77-8-28.46-18.53-26.11-23.51 c2.35-4.98,17.86-2.53,34.63,5.47C271.46,264.96,283.15,275.49,280.79,280.47z" class="st166"/><ellipse cx="250.42" cy="265.98" class="st167" rx="9.86" ry="33.25" transform="matrix(0.4309 -0.9024 0.9024 0.4309 -97.5015 377.3579)"/><ellipse cx="250.42" cy="265.98" class="st168" rx="9.74" ry="32.85" transform="matrix(0.4309 -0.9024 0.9024 0.4309 -97.5015 377.3577)"/><path d="M279.71,279.95c-2.27,4.8-17.22,2.44-33.39-5.27c-16.17-7.72-27.44-17.86-25.17-22.67 c2.27-4.8,17.22-2.44,33.39,5.27C270.71,265,281.98,275.15,279.71,279.95z" class="st169"/><ellipse cx="250.42" cy="265.98" class="st170" rx="9.5" ry="32.05" transform="matrix(0.4309 -0.9024 0.9024 0.4309 -97.5012 377.3588)"/><ellipse cx="250.42" cy="265.98" class="st171" rx="9.38" ry="31.64" transform="matrix(0.4309 -0.9024 0.9024 0.4309 -97.5016 377.3577)"/><path d="M278.62,279.43c-2.19,4.63-16.58,2.35-32.16-5.08c-15.57-7.43-26.43-17.2-24.24-21.83 c2.19-4.63,16.58-2.35,32.16,5.08C269.96,265.03,280.81,274.81,278.62,279.43z" class="st172"/><path d="M278.26,279.26c-2.16,4.57-16.37,2.32-31.75-5.01c-15.37-7.33-26.09-16.98-23.93-21.55 c2.16-4.57,16.37-2.32,31.75,5.01S280.42,274.69,278.26,279.26z" class="st173"/><path d="M277.9,279.09c-2.13,4.51-16.16,2.29-31.33-4.95c-15.17-7.24-25.75-16.76-23.62-21.27 c2.13-4.51,16.16-2.29,31.33,4.95C269.46,265.06,280.03,274.58,277.9,279.09z" class="st174"/><ellipse cx="250.42" cy="265.98" class="st175" rx="8.91" ry="30.04" transform="matrix(0.4309 -0.9024 0.9024 0.4309 -97.5012 377.3589)"/><path d="M277.18,278.74c-2.07,4.39-15.73,2.23-30.51-4.82c-14.78-7.05-25.07-16.32-23-20.71 c2.07-4.39,15.73-2.23,30.51,4.82C268.96,265.08,279.25,274.35,277.18,278.74z" class="st176"/><path d="M276.82,278.57c-2.05,4.33-15.52,2.2-30.1-4.75c-14.58-6.95-24.73-16.1-22.69-20.43 c2.05-4.33,15.52-2.2,30.1,4.75C268.71,265.09,278.86,274.24,276.82,278.57z" class="st177"/><path d="M276.46,278.4c-2.02,4.27-15.31,2.17-29.68-4.69c-14.38-6.86-24.39-15.88-22.38-20.15 c2.02-4.27,15.31-2.17,29.68,4.69C268.45,265.11,278.47,274.13,276.46,278.4z" class="st178"/><path d="M276.09,278.23c-1.99,4.21-15.1,2.14-29.27-4.62c-14.18-6.76-24.06-15.66-22.07-19.87 c1.99-4.21,15.1-2.14,29.27,4.62C268.2,265.12,278.08,274.01,276.09,278.23z" class="st179"/><ellipse cx="250.42" cy="265.98" class="st180" rx="8.31" ry="28.04" transform="matrix(0.4309 -0.9024 0.9024 0.4309 -97.5013 377.3584)"/><ellipse cx="250.42" cy="265.98" class="st181" rx="8.2" ry="27.64" transform="matrix(0.4309 -0.9024 0.9024 0.4309 -97.5015 377.3578)"/><path d="M275.01,277.71c-1.91,4.03-14.46,2.05-28.04-4.43c-13.58-6.48-23.04-15-21.13-19.03 c1.91-4.03,14.46-2.05,28.04,4.43C267.45,265.15,276.92,273.67,275.01,277.71z" class="st182"/><path d="M274.65,277.54c-1.88,3.97-14.25,2.02-27.62-4.36c-13.38-6.38-22.7-14.78-20.82-18.75 c1.88-3.97,14.25-2.02,27.62,4.36C267.2,265.17,276.53,273.56,274.65,277.54z" class="st183"/><path d="M274.29,277.36c-1.85,3.91-14.03,1.99-27.21-4.3c-13.18-6.29-22.36-14.56-20.51-18.47 c1.85-3.91,14.03-1.99,27.21,4.3C266.95,265.18,276.14,273.45,274.29,277.36z" class="st184"/><path d="M273.92,277.19c-1.82,3.85-13.82,1.96-26.8-4.23c-12.98-6.19-22.02-14.34-20.2-18.19 c1.82-3.85,13.82-1.96,26.8,4.23C266.7,265.19,275.75,273.34,273.92,277.19z" class="st185"/><path d="M273.56,277.02c-1.79,3.8-13.61,1.93-26.39-4.17c-12.78-6.1-21.68-14.12-19.89-17.91 c1.79-3.8,13.61-1.93,26.39,4.17C266.45,265.2,275.36,273.22,273.56,277.02z" class="st186"/><ellipse cx="250.42" cy="265.98" class="st187" rx="7.48" ry="25.24" transform="matrix(0.4309 -0.9024 0.9024 0.4309 -97.501 377.3596)"/><path d="M272.84,276.67c-1.74,3.68-13.18,1.87-25.56-4.04c-12.38-5.91-21.01-13.67-19.27-17.35 c1.74-3.68,13.18-1.87,25.56,4.04C265.95,265.23,274.58,273,272.84,276.67z" class="st188"/><ellipse cx="250.42" cy="265.98" class="st189" rx="7.24" ry="24.43" transform="matrix(0.4309 -0.9024 0.9024 0.4309 -97.5014 377.3583)"/><path d="M272.12,276.33c-1.68,3.56-12.76,1.81-24.74-3.91c-11.98-5.72-20.33-13.23-18.65-16.79 c1.68-3.56,12.76-1.81,24.74,3.91C265.45,265.25,273.8,272.77,272.12,276.33z" class="st190"/><path d="M271.76,276.16c-1.65,3.5-12.54,1.78-24.32-3.84c-11.78-5.62-19.99-13.01-18.34-16.51 c1.65-3.5,12.54-1.78,24.32,3.84C265.2,265.26,273.41,272.66,271.76,276.16z" class="st191"/><path d="M271.39,275.98c-1.63,3.44-12.33,1.75-23.91-3.77c-11.58-5.52-19.65-12.79-18.03-16.23 c1.63-3.44,12.33-1.75,23.91,3.77C264.95,265.28,273.02,272.54,271.39,275.98z" class="st192"/><path d="M271.03,275.81c-1.6,3.38-12.12,1.72-23.5-3.71c-11.38-5.43-19.31-12.57-17.71-15.95 c1.6-3.38,12.12-1.72,23.5,3.71C264.7,265.29,272.63,272.43,271.03,275.81z" class="st193"/><path d="M270.67,275.64c-1.57,3.32-11.91,1.69-23.09-3.64c-11.18-5.33-18.97-12.35-17.4-15.67 c1.57-3.32,11.91-1.69,23.09,3.64C264.45,265.3,272.24,272.32,270.67,275.64z" class="st194"/><path d="M270.31,275.47c-1.54,3.26-11.69,1.66-22.68-3.58c-10.98-5.24-18.63-12.13-17.09-15.39 c1.54-3.26,11.69-1.66,22.68,3.58C264.2,265.31,271.85,272.2,270.31,275.47z" class="st195"/><path d="M269.95,275.29c-1.51,3.2-11.48,1.63-22.26-3.51c-10.78-5.14-18.3-11.91-16.78-15.11 c1.51-3.2,11.48-1.63,22.26,3.51C263.95,265.32,271.46,272.09,269.95,275.29z" class="st196"/><path d="M269.59,275.12c-1.49,3.14-11.27,1.6-21.85-3.45c-10.58-5.05-17.96-11.69-16.47-14.83 c1.49-3.14,11.27-1.6,21.85,3.45C263.7,265.34,271.07,271.98,269.59,275.12z" class="st197"/><path d="M269.22,274.95c-1.46,3.08-11.06,1.57-21.44-3.38c-10.38-4.95-17.62-11.47-16.16-14.55 c1.46-3.08,11.06-1.57,21.44,3.38C263.45,265.35,270.68,271.86,269.22,274.95z" class="st198"/><path d="M268.86,274.78c-1.43,3.02-10.84,1.54-21.03-3.32c-10.18-4.86-17.28-11.25-15.85-14.27 c1.43-3.02,10.84-1.54,21.03,3.32C263.2,265.36,270.29,271.75,268.86,274.78z" class="st199"/><ellipse cx="250.42" cy="265.98" class="st200" rx="5.94" ry="20.03" transform="matrix(0.4309 -0.9024 0.9024 0.4309 -97.5017 377.3572)"/><path d="M268.14,274.43c-1.37,2.91-10.42,1.48-20.2-3.19c-9.78-4.67-16.6-10.81-15.23-13.71 c1.37-2.91,10.42-1.48,20.2,3.19C262.7,265.39,269.51,271.52,268.14,274.43z" class="st201"/><path d="M267.78,274.26c-1.35,2.85-10.21,1.45-19.79-3.12c-9.58-4.57-16.26-10.59-14.92-13.43 c1.35-2.85,10.21-1.45,19.79,3.12C262.44,265.4,269.12,271.41,267.78,274.26z" class="st202"/><path d="M267.42,274.09c-1.32,2.79-9.99,1.42-19.38-3.06c-9.38-4.48-15.92-10.37-14.61-13.15 c1.32-2.79,9.99-1.42,19.38,3.06C262.19,265.41,268.73,271.3,267.42,274.09z" class="st203"/><path d="M267.06,273.91c-1.29,2.73-9.78,1.39-18.97-2.99c-9.18-4.38-15.59-10.15-14.3-12.87 c1.29-2.73,9.78-1.39,18.97,2.99C261.94,265.42,268.34,271.19,267.06,273.91z" class="st204"/><path d="M266.69,273.74c-1.26,2.67-9.57,1.36-18.55-2.93c-8.99-4.29-15.25-9.92-13.99-12.59 c1.26-2.67,9.57-1.36,18.55,2.93C261.69,265.43,267.96,271.07,266.69,273.74z" class="st205"/><path d="M266.33,273.57c-1.23,2.61-9.35,1.33-18.14-2.86c-8.79-4.19-14.91-9.7-13.67-12.31 c1.23-2.61,9.35-1.33,18.14,2.86C261.44,265.45,267.57,270.96,266.33,273.57z" class="st206"/><path d="M265.97,273.4c-1.21,2.55-9.14,1.3-17.73-2.8c-8.59-4.1-14.57-9.48-13.36-12.03 c1.21-2.55,9.14-1.3,17.73,2.8C261.19,265.46,267.18,270.85,265.97,273.4z" class="st207"/><path d="M265.61,273.22c-1.18,2.49-8.93,1.27-17.32-2.73c-8.39-4-14.23-9.26-13.05-11.75 c1.18-2.49,8.93-1.27,17.32,2.73C260.94,265.47,266.79,270.73,265.61,273.22z" class="st208"/><path d="M265.25,273.05c-1.15,2.43-8.72,1.24-16.9-2.67c-8.19-3.91-13.89-9.04-12.74-11.47 c1.15-2.43,8.72-1.24,16.9,2.67C260.69,265.48,266.4,270.62,265.25,273.05z" class="st209"/><path d="M264.89,272.88c-1.12,2.37-8.5,1.21-16.49-2.6c-7.99-3.81-13.55-8.82-12.43-11.19 c1.12-2.37,8.5-1.21,16.49,2.6C260.44,265.49,266.01,270.51,264.89,272.88z" class="st210"/><path d="M264.52,272.71c-1.09,2.31-8.29,1.18-16.08-2.54c-7.79-3.71-13.21-8.6-12.12-10.91 c1.09-2.31,8.29-1.18,16.08,2.54C260.19,265.51,265.62,270.39,264.52,272.71z" class="st211"/><path d="M264.16,272.53c-1.07,2.25-8.08,1.15-15.67-2.47c-7.59-3.62-12.87-8.38-11.81-10.63 c1.07-2.25,8.08-1.15,15.67,2.47C259.94,265.52,265.23,270.28,264.16,272.53z" class="st212"/><path d="M263.8,272.36c-1.04,2.19-7.87,1.12-15.25-2.41c-7.39-3.52-12.54-8.16-11.5-10.35 c1.04-2.19,7.87-1.12,15.25,2.41C259.69,265.53,264.84,270.17,263.8,272.36z" class="st213"/><path d="M263.44,272.19c-1.01,2.14-7.65,1.09-14.84-2.34c-7.19-3.43-12.2-7.94-11.19-10.07 c1.01-2.14,7.65-1.09,14.84,2.34C259.44,265.54,264.45,270.05,263.44,272.19z" class="st214"/><path d="M263.08,272.02c-0.98,2.08-7.44,1.06-14.43-2.28c-6.99-3.33-11.86-7.72-10.88-9.79 c0.98-2.08,7.44-1.06,14.43,2.28S264.06,269.94,263.08,272.02z" class="st215"/><path d="M262.72,271.84c-0.95,2.02-7.23,1.03-14.02-2.21c-6.79-3.24-11.52-7.5-10.57-9.52 c0.95-2.02,7.23-1.03,14.02,2.21C258.94,265.57,263.67,269.83,262.72,271.84z" class="st216"/><path d="M262.36,271.67c-0.92,1.96-7.02,1-13.61-2.15c-6.59-3.14-11.18-7.28-10.26-9.24 c0.92-1.96,7.02-1,13.61,2.15C258.69,265.58,263.28,269.71,262.36,271.67z" class="st217"/><ellipse cx="250.42" cy="265.98" class="st218" rx="3.8" ry="12.82" transform="matrix(0.4309 -0.9024 0.9024 0.4309 -97.502 377.3565)"/><path d="M261.63,271.33c-0.87,1.84-6.59,0.94-12.78-2.02c-6.19-2.95-10.5-6.84-9.63-8.68 c0.87-1.84,6.59-0.94,12.78,2.02C258.19,265.6,262.5,269.49,261.63,271.33z" class="st219"/><path d="M261.27,271.15c-0.84,1.78-6.38,0.9-12.37-1.95c-5.99-2.86-10.16-6.62-9.32-8.4 c0.84-1.78,6.38-0.9,12.37,1.95C257.94,265.62,262.11,269.37,261.27,271.15z" class="st220"/><path d="M260.91,270.98c-0.81,1.72-6.17,0.87-11.96-1.89c-5.79-2.76-9.83-6.4-9.01-8.12s6.17-0.87,11.96,1.89 C257.69,265.63,261.72,269.26,260.91,270.98z" class="st221"/><path d="M260.55,270.81c-0.78,1.66-5.95,0.84-11.54-1.82c-5.59-2.67-9.49-6.18-8.7-7.84 c0.78-1.66,5.95-0.84,11.54,1.82C257.44,265.64,261.33,269.15,260.55,270.81z" class="st222"/><path d="M260.19,270.64c-0.76,1.6-5.74,0.81-11.13-1.76c-5.39-2.57-9.15-5.95-8.39-7.56 c0.76-1.6,5.74-0.81,11.13,1.76C257.19,265.65,260.94,269.04,260.19,270.64z" class="st223"/><path d="M259.82,270.46c-0.73,1.54-5.53,0.78-10.72-1.69c-5.19-2.48-8.81-5.73-8.08-7.28 c0.73-1.54,5.53-0.78,10.72,1.69C256.94,265.66,260.55,268.92,259.82,270.46z" class="st224"/><path d="M259.46,270.29c-0.7,1.48-5.32,0.75-10.31-1.63c-4.99-2.38-8.47-5.51-7.77-7 c0.7-1.48,5.32-0.75,10.31,1.63C256.69,265.68,260.16,268.81,259.46,270.29z" class="st225"/><path d="M259.1,270.12c-0.67,1.42-5.1,0.72-9.89-1.56c-4.79-2.29-8.13-5.29-7.46-6.72 c0.67-1.42,5.1-0.72,9.89,1.56C256.43,265.69,259.77,268.7,259.1,270.12z" class="st226"/><path d="M258.74,269.95c-0.64,1.36-4.89,0.69-9.48-1.5c-4.59-2.19-7.79-5.07-7.15-6.44 c0.64-1.36,4.89-0.69,9.48,1.5S259.38,268.58,258.74,269.95z" class="st227"/><path d="M258.38,269.77c-0.62,1.3-4.68,0.66-9.07-1.43c-4.39-2.1-7.45-4.85-6.84-6.16 c0.62-1.3,4.68-0.66,9.07,1.43C255.93,265.71,259,268.47,258.38,269.77z" class="st228"/><path d="M258.02,269.6c-0.59,1.25-4.46,0.63-8.66-1.37c-4.19-2-7.12-4.63-6.53-5.88c0.59-1.25,4.46-0.63,8.66,1.37 C255.68,265.73,258.61,268.36,258.02,269.6z" class="st229"/><path d="M257.66,269.43c-0.56,1.19-4.25,0.6-8.25-1.3c-3.99-1.9-6.78-4.41-6.22-5.6c0.56-1.19,4.25-0.6,8.25,1.3 C255.43,265.74,258.22,268.24,257.66,269.43z" class="st230"/><path d="M257.29,269.26c-0.53,1.13-4.04,0.57-7.83-1.24c-3.79-1.81-6.44-4.19-5.9-5.32 c0.53-1.13,4.04-0.57,7.83,1.24S257.83,268.13,257.29,269.26z" class="st231"/><path d="M256.93,269.08c-0.5,1.07-3.83,0.54-7.42-1.17c-3.59-1.71-6.1-3.97-5.59-5.04 c0.5-1.07,3.83-0.54,7.42,1.17C254.93,265.76,257.44,268.02,256.93,269.08z" class="st232"/><path d="M256.57,268.91c-0.48,1.01-3.61,0.51-7.01-1.11c-3.39-1.62-5.76-3.75-5.28-4.76 c0.48-1.01,3.61-0.51,7.01,1.11C254.68,265.77,257.05,267.9,256.57,268.91z" class="st233"/><path d="M256.21,268.74c-0.45,0.95-3.4,0.48-6.6-1.04c-3.19-1.52-5.42-3.53-4.97-4.48c0.45-0.95,3.4-0.48,6.6,1.04 C254.43,265.79,256.66,267.79,256.21,268.74z" class="st234"/><path d="M255.85,268.57c-0.42,0.89-3.19,0.45-6.18-0.98c-3-1.43-5.08-3.31-4.66-4.2c0.42-0.89,3.19-0.45,6.18,0.98 C254.18,265.8,256.27,267.68,255.85,268.57z" class="st235"/><path d="M255.49,268.39c-0.39,0.83-2.98,0.42-5.77-0.91c-2.8-1.33-4.74-3.09-4.35-3.92 c0.39-0.83,2.98-0.42,5.77,0.91C253.93,265.81,255.88,267.56,255.49,268.39z" class="st236"/><path d="M255.12,268.22c-0.36,0.77-2.76,0.39-5.36-0.85c-2.6-1.24-4.4-2.87-4.04-3.64 c0.36-0.77,2.76-0.39,5.36,0.85C253.68,265.82,255.49,267.45,255.12,268.22z" class="st237"/><path d="M254.76,268.05c-0.34,0.71-2.55,0.36-4.95-0.78c-2.4-1.14-4.07-2.65-3.73-3.36 c0.34-0.71,2.55-0.36,4.95,0.78C253.43,265.83,255.1,267.34,254.76,268.05z" class="st238"/><path d="M254.4,267.88c-0.31,0.65-2.34,0.33-4.54-0.72c-2.2-1.05-3.73-2.43-3.42-3.08 c0.31-0.65,2.34-0.33,4.54,0.72C253.18,265.85,254.71,267.22,254.4,267.88z" class="st239"/><path d="M254.04,267.7c-0.28,0.59-2.13,0.3-4.12-0.65c-2-0.95-3.39-2.21-3.11-2.8c0.28-0.59,2.13-0.3,4.12,0.65 C252.93,265.86,254.32,267.11,254.04,267.7z" class="st240"/><path d="M253.68,267.53c-0.25,0.53-1.91,0.27-3.71-0.59c-1.8-0.86-3.05-1.98-2.8-2.52 c0.25-0.53,1.91-0.27,3.71,0.59C252.68,265.87,253.93,267,253.68,267.53z" class="st241"/><path d="M253.32,267.36c-0.22,0.47-1.7,0.24-3.3-0.52c-1.6-0.76-2.71-1.76-2.49-2.24c0.22-0.47,1.7-0.24,3.3,0.52 C252.43,265.88,253.54,266.89,253.32,267.36z" class="st242"/><path d="M252.96,267.19c-0.2,0.42-1.49,0.21-2.89-0.46c-1.4-0.67-2.37-1.54-2.18-1.96 c0.2-0.42,1.49-0.21,2.89,0.46C252.18,265.89,253.15,266.77,252.96,267.19z" class="st243"/><path d="M252.59,267.01c-0.17,0.36-1.28,0.18-2.47-0.39c-1.2-0.57-2.03-1.32-1.86-1.68s1.28-0.18,2.47,0.39 C251.93,265.91,252.76,266.66,252.59,267.01z" class="st244"/><path d="M252.23,266.84c-0.14,0.3-1.06,0.15-2.06-0.33c-1-0.48-1.69-1.1-1.55-1.4c0.14-0.3,1.06-0.15,2.06,0.33 C251.68,265.92,252.37,266.55,252.23,266.84z" class="st245"/><path d="M251.87,266.67c-0.11,0.24-0.85,0.12-1.65-0.26c-0.8-0.38-1.36-0.88-1.24-1.12 c0.11-0.24,0.85-0.12,1.65,0.26C251.43,265.93,251.98,266.43,251.87,266.67z" class="st246"/><path d="M251.51,266.5c-0.08,0.18-0.64,0.09-1.24-0.2c-0.6-0.29-1.02-0.66-0.93-0.84c0.08-0.18,0.64-0.09,1.24,0.2 C251.18,265.94,251.59,266.32,251.51,266.5z" class="st247"/><path d="M251.15,266.32c-0.06,0.12-0.43,0.06-0.82-0.13c-0.4-0.19-0.68-0.44-0.62-0.56 c0.06-0.12,0.43-0.06,0.82,0.13C250.93,265.96,251.2,266.21,251.15,266.32z" class="st248"/><path d="M250.79,266.15c-0.03,0.06-0.21,0.03-0.41-0.07c-0.2-0.1-0.34-0.22-0.31-0.28 c0.03-0.06,0.21-0.03,0.41,0.07S250.81,266.09,250.79,266.15z" class="st249"/></g></g><g><path d="M193.63,143.36c-4.6-2.67-12.63-2.33-17.93,0.75l-16.09,9.34l84.75,49.16c2.84,1.65,7.81,1.44,11.1-0.46 l19.76-11.46L193.63,143.36z" class="st250"/><path d="M441.72,73.37l-2.08,1.65c-0.04-0.03-0.08-0.05-0.12-0.08L325.06,8.54c-3.25-1.89-8.93-1.65-12.68,0.53 L125.41,117.52c-0.44,0.25-0.83,0.53-1.18,0.81l-1.93-1.42v4.71l0.01-0.01c-0.03,1.22,0.68,2.4,2.18,3.27l114.47,66.4 c3.25,1.89,8.93,1.65,12.68-0.53L438.61,82.3c2.05-1.19,3.1-2.72,3.1-4.17l0.01,0.01V73.37z" class="st5"/><linearGradient id="SVGID_5_" x1="2186.439" x2="1855.499" y1="-875.041" y2="-917.189" gradientTransform="matrix(1 -0.5774 0.866 0.5 -955.1197 1706.498)" gradientUnits="userSpaceOnUse"><stop offset="0" style="stop-color:#59bdef"/><stop offset="1" style="stop-color:#7bdaff"/></linearGradient><path d="M438.61,77.53L251.66,185.98c-3.75,2.18-9.43,2.41-12.68,0.53l-114.47-66.4c-3.25-1.89-2.84-5.18,0.91-7.36 L312.37,4.3c3.75-2.18,9.43-2.41,12.68-0.53l114.47,66.4C442.78,72.06,442.37,75.35,438.61,77.53z" class="st251"/><g><path d="M291.09,56.27l-16.08-9.33l3.94-2.28c0.74-0.43,1.46-0.77,2.14-1.01c0.69-0.24,1.4-0.4,2.14-0.47 c0.73-0.07,1.49-0.01,2.25,0.18c0.76,0.19,1.53,0.51,2.29,0.96c1.98,1.15,2.3,2.26,0.96,3.3c1.13-0.45,2.26-0.62,3.37-0.51 c1.12,0.11,2.27,0.5,3.45,1.18c1.53,0.88,2.31,1.77,2.33,2.68c0.02,0.9-0.7,1.79-2.18,2.64L291.09,56.27z M284.5,49.04l0.91-0.53 c0.86-0.5,1.27-0.95,1.22-1.35c-0.05-0.4-0.5-0.86-1.38-1.36c-0.45-0.26-0.87-0.44-1.26-0.55c-0.39-0.1-0.78-0.12-1.17-0.06 c-0.39,0.06-0.77,0.17-1.12,0.32c-0.35,0.15-0.78,0.38-1.29,0.67L280,46.43L284.5,49.04z M291.95,53.37l1.07-0.62 c0.87-0.51,1.27-0.97,1.2-1.41c-0.07-0.43-0.58-0.92-1.51-1.46c-0.97-0.56-1.86-0.86-2.68-0.89c-0.82-0.03-1.67,0.21-2.56,0.72 l-0.92,0.53L291.95,53.37z" class="st5"/><path d="M301.26,50.36l-12.81-11.22l3.05-1.77l19.34,7.44l-2.73,1.58l-4.38-1.79l-2.78,1.61l3.08,2.55L301.26,50.36z M299.35,44.92l2.15-1.25l-7.68-3.21L299.35,44.92z" class="st5"/><path d="M312.43,43.89l-16.08-9.33l2.02-1.17l13.05,3l-9.11-5.28l2.43-1.41l16.08,9.33l-1.92,1.11l-13.55-3.25 l9.57,5.55L312.43,43.89z" class="st5"/><path d="M323.21,37.63l-16.08-9.33l2.93-1.7l6.98,4.05l-3.82-5.88l2.79-1.62l4.12,5.96l12.28,3.18l-2.92,1.69 l-10.34-2.78l0.47,0.94l6.52,3.78L323.21,37.63z" class="st5"/></g><g><polygon points="273.62 146.14 237.78 166.92 233.64 164.52 269.47 143.73" class="st5"/><polygon points="317.67 120.59 281.83 141.37 277.68 138.97 313.52 118.18" class="st5"/><polygon points="361.71 95.03 325.88 115.82 321.73 113.42 357.57 92.63" class="st5"/><polygon points="405.76 69.48 369.93 90.27 365.78 87.87 401.61 67.08" class="st5"/></g></g><g><g><path d="M447.45,215.75l-62.57-36.61c-12.4-7.19-24.09-8.33-32.92-3.21c-8.83,5.12-13.69,15.86-13.69,30.25v4.61 c0.44,0.3,0.91,0.59,1.38,0.89v-5.49c0-13.86,4.62-24.18,13-29.04c8.39-4.86,19.59-3.72,31.54,3.21l62.57,36.61 c0.33,0.2,0.75,0.08,0.94-0.25C447.89,216.36,447.78,215.94,447.45,215.75z" class="st5"/><path d="M252.31,172.14v-38.7c0-28.36-19.89-62.97-44.33-77.15c-11.97-6.94-23.26-8.05-31.8-3.1 c-8.53,4.95-13.23,15.32-13.23,29.21v9.88c0.46,0.46,0.92,0.92,1.38,1.39V82.41c0-13.37,4.45-23.32,12.54-28.01 c8.09-4.69,18.89-3.59,30.42,3.1c24.06,13.96,43.64,48.03,43.64,75.95v38.7c0,23.51,13.77,51.33,32.43,68.07 c0-0.62,0-1.24,0-1.86C265.43,221.79,252.31,194.91,252.31,172.14z" class="st5"/><g><path d="M283.5,239.62c0,0-15.93-16.3-22.13-29.74c-6.2-13.44-9.42-25.88-9.52-36.97 c-0.11-11.09-0.22-3.48-0.22-3.48s0.68-39.54-0.97-45.78c-1.66-6.24-5.56-39.55-38.02-63.47 c-32.47-23.92-48.68,1.88-48.49,15.37c0.19,13.48,0,22.11,0,22.11s17.79,14.46,24.5,35.12c6.71,20.66,7.36,17.07,7.47,37.62 c0.11,20.55,0.22,21.82,0.22,21.82s-1.5,18.31,3.03,32.48c4.53,14.17,12.69,29.88,22.37,40.16 c9.68,10.29,23.95,22.44,37.16,21.24c13.2-1.2,22.08-6.09,24.62-27.08V239.62z" class="st5"/><polygon points="176.18 53.19 121.46 84.89 164.14 97.66" class="st5"/><linearGradient id="SVGID_6_" x1="330.598" x2="267.734" y1="221.113" y2="254.942" gradientUnits="userSpaceOnUse"><stop offset="0" style="stop-color:#59bdef"/><stop offset="1" style="stop-color:#7bdaff"/></linearGradient><path d="M338.26,210.78v6.36c-3.04-2.21-17.36-12.04-30.95-11.56c-15.31,0.54-20.46,14.63-20.46,14.63 s-3.63,10.51-3.36,15.44c0.05,0.85,0.09,1.86,0.12,2.93c-0.09-0.08-0.17-0.15-0.26-0.23c0,0.62,0,1.24,0,1.86 c0.1,0.09,0.21,0.18,0.32,0.27c0.12,4.74,0.16,9.96,0.16,9.96s0.13,9.38-1.19,15.55c-2.38,11.09-11.73,17.39-12.45,18.37 l56.15-32.48c0.05-0.03,0.1-0.05,0.15-0.07c0.08-0.04,0.15-0.1,0.22-0.14l0.28-0.16l0.03-0.04 c8.12-5.03,12.59-15.17,12.59-28.66v-11.13C339.17,211.38,338.7,211.09,338.26,210.78z" class="st252"/><path d="M294.51,209.34l57.45-33.41c0,0,9.8-5.17,21.64-0.82c11.85,4.36,73.93,41.78,73.93,41.78L392.06,249 c0,0-64.44-40.11-72-42.13C304.54,202.74,294.51,209.34,294.51,209.34z" class="st5"/></g><linearGradient id="SVGID_7_" x1="137.338" x2="65.157" y1="108.311" y2="132.568" gradientUnits="userSpaceOnUse"><stop offset="0" style="stop-color:#59bdef"/><stop offset="1" style="stop-color:#7bdaff"/></linearGradient><path d="M162.95,96.62L162.95,96.62c-2.27-2.16-12.83-11.53-28.25-13.89c-17.46-2.68-24.68,17.83-24.68,17.83 s-2.02,10.66-1.95,16.96c0.07,6.31,0.52,29.21,0.52,29.21l55.35-32.04l0-0.01c0.22-0.11,0.38-0.34,0.38-0.61V97.82 C163.87,97.36,163.41,97.08,162.95,96.62z" class="st253"/><g><linearGradient id="SVGID_8_" x1="107.576" x2="392.416" y1="184.537" y2="184.537" gradientUnits="userSpaceOnUse"><stop offset="0" style="stop-color:#59bdef"/><stop offset="1" style="stop-color:#7bdaff"/></linearGradient><path d="M259.41,286.88c-6.1,0-12.86-2.05-19.85-6.1c-24.27-14.08-44.01-48.44-44.01-76.59v-38.7 c0-27.92-19.58-61.99-43.64-75.95c-11.53-6.68-22.33-7.79-30.41-3.1c-8.09,4.69-12.54,14.64-12.54,28.01v31.67 c0,0.38-0.31,0.69-0.69,0.69c-0.38,0-0.69-0.31-0.69-0.69v-31.67c0-13.89,4.7-24.26,13.23-29.21c8.53-4.95,19.82-3.85,31.79,3.1 c24.45,14.18,44.33,48.79,44.33,77.15v38.7c0,27.71,19.43,61.53,43.32,75.39c11.44,6.63,22.16,7.73,30.19,3.07 c8.02-4.65,12.44-14.53,12.44-27.8v-16.62c0-14.38,4.86-25.12,13.69-30.25c8.83-5.12,20.52-3.98,32.92,3.21l62.57,36.61 c0.33,0.19,0.44,0.62,0.25,0.95c-0.19,0.33-0.62,0.44-0.94,0.25l-62.57-36.61c-11.95-6.93-23.15-8.07-31.54-3.21 c-8.39,4.86-13,15.18-13,29.04v16.62c0,13.79-4.66,24.09-13.13,29C267.64,285.88,263.69,286.88,259.41,286.88z" class="st254"/></g></g><g><g><polygon points="219.99 180.86 219.99 185.87 213.18 189.81 213.18 184.81" class="st255"/><polygon points="232.38 173.67 232.38 178.68 225.58 182.63 225.58 177.62" class="st255"/><polygon points="239.81 160.01 239.81 165.01 213.51 180.27 213.51 175.27" class="st255"/><polygon points="226.68 144.19 226.68 139.19 239.81 131.57 239.81 136.57" class="st255"/><polygon points="213.18 152.02 213.18 147.02 219.99 143.07 219.99 148.07" class="st255"/><polygon points="213.18 161.37 213.18 156.37 226.15 148.85 226.15 153.85" class="st255"/><polygon points="231.38 150.82 231.38 145.82 239.81 140.92 239.81 145.92" class="st255"/><polygon points="226.68 202.43 226.68 197.43 239.81 189.81 239.81 194.82" class="st255"/><polygon points="213.18 210.26 213.18 205.26 219.99 201.31 219.99 206.31" class="st255"/><polygon points="213.18 219.61 213.18 214.61 226.15 207.09 226.15 212.09" class="st255"/><polygon points="231.38 209.06 231.38 204.06 239.81 199.16 239.81 204.17" class="st255"/></g><g><polygon points="366.77 217.22 362.46 214.72 368.27 211.35 372.58 213.85" class="st255"/><polygon points="375.1 203.04 370.79 200.54 381.85 194.12 386.16 196.62" class="st255"/><polygon points="350.47 207.11 346.16 204.6 373.04 189.01 377.35 191.51" class="st255"/><polygon points="376.68 211.47 372.37 208.97 394.81 195.96 399.12 198.46" class="st255"/><polygon points="359.28 212.22 354.97 209.72 366.03 203.3 370.34 205.8" class="st255"/></g></g></g><g><polygon points="90.33 225.41 88.01 226.76 82.53 223.57 84.84 222.23" class="st5"/><polygon points="94.59 222.94 92.28 224.28 86.79 221.1 89.11 219.76" class="st5"/><polygon points="98.86 220.47 96.54 221.81 91.06 218.63 93.37 217.28" class="st5"/><polygon points="103.12 217.99 100.81 219.33 95.32 216.15 97.64 214.81" class="st5"/></g></g><g><defs><polygon id="SVGID_9_" points="88.61 246.21 70.49 233.92 89.71 179.2 144.65 197.18 116.62 255.36"/></defs><clipPath id="SVGID_10_"><use xlink:href="#SVGID_9_" style="overflow:visible"/></clipPath><g class="st256"><g><g><linearGradient id="SVGID_11_" x1="-1991.641" x2="-1967.337" y1="207.548" y2="224.303" gradientTransform="matrix(1 0 0 1 2080.3184 0)" gradientUnits="userSpaceOnUse"><stop offset="0" style="stop-color:#3a9bd5"/><stop offset="1" style="stop-color:#2573ba"/></linearGradient><polygon points="109.74 225.32 90.4 214.1 90.4 205.49 109.74 216.7" class="st257"/><linearGradient id="SVGID_12_" x1="-1985.076" x2="-1957.783" y1="199.262" y2="210.988" gradientTransform="matrix(1 0 0 1 2080.3184 0)" gradientUnits="userSpaceOnUse"><stop offset="0" style="stop-color:#7bdaff"/><stop offset="1" style="stop-color:#59bdef"/></linearGradient><polygon points="109.74 216.7 90.4 205.49 109.73 194.27 129.07 205.49" class="st258"/><linearGradient id="SVGID_13_" x1="-1973.058" x2="-1947.172" y1="211.742" y2="219.546" gradientTransform="matrix(1 0 0 1 2080.3184 0)" gradientUnits="userSpaceOnUse"><stop offset="0" style="stop-color:#2573ba"/><stop offset="1" style="stop-color:#0063ad"/></linearGradient><polygon points="129.07 214.1 109.73 225.32 109.73 216.7 129.07 205.49" class="st259"/></g><polygon points="109.74 216.27 90.78 205.27 90.4 205.49 109.74 216.7 129.07 205.49 128.69 205.27" class="st260"/></g><polygon points="106.01 218.23 94.79 211.65 85.34 219.25 84.54 225.81 84.54 231.8 43.55 256.67 34.22 262.21 35.64 266.49 42.13 269.08 51.11 266.4 73.81 252.12 90.4 242.96 95.96 238.67 96.32 229.56 97.03 224.03" class="st5"/><g><path d="M42.61,270.59c-1.84,0-3.69-0.49-5.37-1.46c-3.36-1.95-5.37-5.44-5.37-9.34v-30.32 c0-0.81,0.66-1.47,1.47-1.47c0.81,0,1.47,0.66,1.47,1.47v30.32c0,2.83,1.46,5.37,3.9,6.79c2.44,1.42,5.36,1.42,7.8,0l45.42-26.37 c1.71-0.99,2.77-2.83,2.77-4.81v-6.75c0-3.03,1.62-5.85,4.23-7.36l5.46-3.17c0.7-0.41,1.6-0.17,2,0.54 c0.4,0.7,0.16,1.61-0.54,2.01l-5.46,3.17c-1.71,0.99-2.77,2.83-2.77,4.81v6.75c0,3.03-1.62,5.85-4.23,7.36l-45.42,26.37 C46.29,270.1,44.45,270.59,42.61,270.59z" class="st5"/></g><path d="M95.34,212.19c-0.4-0.7-1.3-0.95-2-0.54l-5.46,3.17c-2.61,1.51-4.23,4.34-4.23,7.36v6.75 c0,1.98-1.06,3.82-2.77,4.81l-47.53,27.59c-1,0.58-2.09,0.92-3.19,1.02c0.1,0.97,0.06,1.97,0.14,2.95 c1.55-0.13,3.09-0.6,4.51-1.42l47.53-27.59c2.61-1.51,4.23-4.34,4.23-7.36v-6.75c0-1.98,1.06-3.82,2.77-4.81l5.46-3.17 C95.5,213.79,95.74,212.89,95.34,212.19z" class="st5"/><linearGradient id="SVGID_14_" x1="-2071.91" x2="-2039.074" y1="250.098" y2="250.098" gradientTransform="matrix(1 0 0 1 2080.3184 0)" gradientUnits="userSpaceOnUse"><stop offset="0" style="stop-color:#3a9bd5"/><stop offset="1" style="stop-color:#2573ba"/></linearGradient><path d="M38.38,269.71l-4.46-5.6l-0.63-6.63V241.4l0.04-5.97l-11.68,2v-5.46c0-0.81-0.66-1.47-1.47-1.47 c-0.81,0-1.47,0.66-1.47,1.47v22.58c0,3.9,2.01,7.39,5.37,9.34c0.6,0.35,1.23,0.64,1.87,0.86l0,0L38.38,269.71z" class="st261"/><g><linearGradient id="SVGID_15_" x1="-2048.447" x2="-1973.736" y1="244.256" y2="244.256" gradientTransform="matrix(1 0 0 1 2080.3184 0)" gradientUnits="userSpaceOnUse"><stop offset="0" style="stop-color:#7bdaff"/><stop offset="1" style="stop-color:#59bdef"/></linearGradient><path d="M42.61,270.59c-1.84,0-3.69-0.49-5.37-1.46c-3.36-1.95-5.37-5.44-5.37-9.34v-30.32 c0-0.81,0.66-1.47,1.47-1.47c0.81,0,1.47,0.66,1.47,1.47v30.32c0,2.83,1.46,5.37,3.9,6.79c2.44,1.42,5.36,1.42,7.8,0l45.42-26.37 c1.71-0.99,2.77-2.83,2.77-4.81v-6.75c0-3.03,1.62-5.85,4.23-7.36l5.46-3.17c0.7-0.41,1.6-0.17,2,0.54 c0.4,0.7,0.16,1.61-0.54,2.01l-5.46,3.17c-1.71,0.99-2.77,2.83-2.77,4.81v6.75c0,3.03-1.62,5.85-4.23,7.36l-45.42,26.37 C46.29,270.1,44.45,270.59,42.61,270.59z" class="st262"/></g><g><polygon points="113.81 221.18 111.84 222.33 111.84 218.35 113.81 217.2" class="st263"/><polygon points="117.1 219.28 115.13 220.42 115.13 216.44 117.1 215.3" class="st5"/><polygon points="120.39 217.37 118.41 218.52 118.41 214.53 120.39 213.39" class="st5"/><polygon points="123.67 215.47 121.7 216.61 121.7 212.63 123.67 211.48" class="st5"/><polygon points="126.96 213.56 124.99 214.7 124.99 210.72 126.96 209.58" class="st5"/></g></g></g></svg>